<?xml version="1.0" encoding="UTF-8" standalone="no"?>
<!-- Created with Inkscape (http://www.inkscape.org/) -->

<svg
   version="1.1"
   id="svg1"
   width="778.51855"
   height="778.29834"
   viewBox="0 0 778.51855 778.29834"
   xmlns="http://www.w3.org/2000/svg"
   xmlns:svg="http://www.w3.org/2000/svg">
  <defs
     id="defs1" />
  <g
     id="g1"
     transform="translate(-157.02258,-69.502243)">
    <path
       style="fill:#000000"
       d="m 157.02904,648.62065 c 0.004,-127.93075 0.25053,-203.23403 0.68878,-210.51329 2.45728,-40.81458 9.75775,-76.69583 23.19467,-114.00001 4.38385,-12.17064 8.5756,-21.97398 15.47445,-36.19049 12.05779,-24.84755 22.8451,-42.52292 39.3499,-64.47618 48.08278,-63.95551 115.6724,-111.78904 191.95242,-135.845745 39.04049,-12.31234 76.95277,-18.09269 118.66667,-18.09269 41.97291,0 79.54104,5.75876 119,18.24133 55.45369,17.542395 108.05604,48.927075 150.23279,89.634945 7.57104,7.30737 21.75359,22.60991 28.80334,31.07794 36.09809,43.36034 63.48962,96.27759 77.98135,150.65089 15.73126,59.02404 17.36278,119.18001 4.91804,181.33335 -10.4162,52.02208 -31.98101,105.9591 -61.47483,153.75832 -29.82183,48.33079 -87.39159,95.21993 -152.06478,123.85297 -32.79828,14.52093 -61.15954,22.63096 -97.39591,27.85082 l -10.33334,1.48852 -224.5,0.20465 -224.5,0.20464 z m 649.51945,-19.01329 c 0.18437,-0.45834 4.90376,-11.93334 10.48754,-25.5 5.58378,-13.56667 10.30182,-25.05389 10.48452,-25.52715 0.25931,-0.67168 -0.96398,-0.81796 -5.57511,-0.66667 l -5.9073,0.19382 -4.14803,9.91803 c -2.28141,5.45492 -4.27211,10.04212 -4.42377,10.19377 -0.15165,0.15166 -1.4028,-2.81145 -2.78032,-6.5847 -1.37753,-3.77324 -3.08688,-8.43544 -3.79857,-10.36044 l -1.29399,-3.5 h -5.9521 c -3.27365,0 -5.9521,0.15206 -5.9521,0.33791 0,0.18585 3.15994,8.07426 7.0221,17.5298 l 7.0221,17.1919 -3.65406,8.80353 -3.65406,8.80353 h 5.89397 c 4.09195,0 5.99645,-0.25478 6.22918,-0.83333 z M 352.31033,615.13062 c 2.26471,-1.15537 2.71226,-1.21645 2.71226,-0.37015 0,0.82747 1.04041,1.01355 5.66667,1.01355 h 5.66667 V 596.74706 577.7201 l -5.47174,0.19363 c -5.21257,0.18446 -5.49021,0.27225 -5.8618,1.85357 -0.28674,1.22024 -0.53676,1.42259 -0.94385,0.76392 -0.98984,-1.6016 -5.97041,-3.39421 -9.47213,-3.40922 -7.11244,-0.0305 -12.78784,3.6841 -15.65623,10.24709 -1.88804,4.31993 -2.05525,12.43194 -0.36027,17.47779 3.35715,9.99405 14.67244,14.89967 23.72042,10.28374 z m -10.55788,-11.73906 c -4.26888,-3.59203 -4.19426,-11.0043 0.13736,-13.64545 4.24038,-2.58552 9.13822,-1.14041 11.47944,3.387 3.86811,7.48011 -5.29855,15.57491 -11.6168,10.25845 z m 208.55788,11.73906 c 2.26471,-1.15537 2.71226,-1.21645 2.71226,-0.37015 0,0.82747 1.04041,1.01355 5.66667,1.01355 h 5.66667 v -19 -19 h -5.39575 c -4.83508,0 -5.43198,0.13855 -5.74442,1.33334 -0.43293,1.65554 -0.53814,1.65319 -2.95227,-0.0658 -2.50983,-1.78716 -8.81208,-2.41418 -12.8636,-1.27983 -3.7032,1.03683 -7.9631,4.60249 -9.85703,8.25061 -1.71864,3.31047 -2.42208,13.18289 -1.2493,17.53326 2.89006,10.72059 14.62012,16.37885 24.01677,11.58504 z M 539.753,603.39202 c -4.41854,-3.71796 -4.01939,-11.56104 0.71291,-14.00821 7.14839,-3.69657 14.4163,3.86495 10.87924,11.31875 -2.10946,4.44538 -7.90687,5.79042 -11.59215,2.68946 z m 225.69456,11.95745 c 1.41627,-0.64449 2.80003,-1.28762 3.07503,-1.42918 0.275,-0.14156 0.5,0.21762 0.5,0.79818 0,0.88032 0.94243,1.05555 5.67705,1.05555 h 5.67705 l -0.17705,-18.83333 -0.17705,-18.83333 -5.5,-0.19363 -5.5,-0.19363 v 1.70309 1.70308 l -2.74438,-1.81614 c -2.07779,-1.37502 -3.78507,-1.88241 -7.02897,-2.08897 -7.37808,-0.4698 -12.75003,2.46987 -16.09275,8.80637 -1.63214,3.0939 -1.7982,4.06793 -1.77529,10.41316 0.0212,5.86405 0.26754,7.4948 1.51816,10.04909 4.31801,8.81925 14.14879,12.68198 22.5482,8.85969 z m -9.24992,-11.28571 c -2.447,-1.32773 -3.84171,-4.22843 -3.84171,-7.98996 0,-2.63635 0.33887,-3.43865 2.26666,-5.36644 1.7497,-1.7497 2.8216,-2.26667 4.69978,-2.26667 4.98276,0 8.36689,3.37056 8.36689,8.33333 0,6.38804 -6.06398,10.23475 -11.49162,7.28974 z m -479.02247,-1.4564 0.18076,-13.16667 4.70736,13 4.70736,13 4.69149,0.19383 4.69149,0.19383 4.93448,-13.52558 4.93448,-13.52559 0.18047,13.49842 0.18047,13.49842 h 5.9862 5.9862 v -23.33333 -23.33333 l -7.5,0.003 -7.5,0.003 -5.58989,15.4971 c -3.07444,8.5234 -5.7986,15.73125 -6.05368,16.01745 -0.25509,0.28619 -2.5001,-5.11381 -4.98892,-12 -2.48881,-6.8862 -5.11121,-14.09535 -5.82755,-16.02035 l -1.30243,-3.5 h -7.28543 -7.28544 v 23.33333 23.33333 h 5.98591 5.98591 z m 111.18325,3.66666 c 0.002,-8.35239 0.16502,-9.76658 1.34793,-11.70678 1.4096,-2.31203 4.76385,-4.12655 7.62816,-4.12655 h 1.68808 v -6.66667 -6.66666 h -1.69322 c -2.22037,0 -6.62264,2.27376 -7.88122,4.07063 -0.97354,1.38993 -1.0007,1.37144 -1.21072,-0.82441 l -0.21484,-2.24622 h -5.33333 -5.33333 l -0.17705,18.83333 -0.17705,18.83333 h 5.67705 5.67705 z m 30.14302,1.72365 0.18782,-7.77635 6.16314,7.77635 6.16314,7.77635 h 6.08516 c 4.7709,0 5.94454,-0.17998 5.4341,-0.83333 -0.35807,-0.45833 -3.70751,-4.68693 -7.44319,-9.39689 l -6.79215,-8.56355 2.23773,-2.76978 c 8.19669,-10.14559 12.4854,-15.6459 12.4854,-16.01263 0,-0.2331 -2.625,-0.42197 -5.83333,-0.41971 l -5.83333,0.004 -6.33334,7.94725 -6.33333,7.94725 -0.17942,-14.61803 -0.17942,-14.61802 h -5.65391 -5.65392 v 25.66667 25.66666 h 5.64551 5.64551 z m 86.74543,5.52558 c 5.85193,-2.86309 10.7942,-8.65203 12.73431,-14.91589 0.45894,-1.48175 0.38872,-1.5 -5.76992,-1.5 -6.22587,0 -6.23617,0.003 -7.42075,2.00813 -1.60041,2.70926 -5.62158,4.66114 -9.57469,4.64757 -8.77944,-0.0302 -14.29627,-9.39335 -10.002,-16.97545 3.96632,-7.00308 15.68221,-7.61454 19.57669,-1.02172 1.18258,2.00196 1.20512,2.00813 7.32928,2.00813 h 6.14306 l -0.53123,-1.85231 c -1.77907,-6.20325 -6.69672,-11.91047 -12.70903,-14.74957 -3.14548,-1.48534 -4.56688,-1.73145 -10,-1.73145 -5.93823,0 -6.59403,0.14137 -10.51222,2.26607 -9.87163,5.35303 -14.54908,15.62327 -11.87293,26.06929 1.80669,7.0522 6.00116,12.40987 12.19682,15.57921 5.79077,2.96223 14.55399,3.03435 20.41261,0.16799 z m 91.3522,1.08411 c 0.18314,-0.64167 1.31246,-5.43256 2.5096,-10.64643 1.19715,-5.21387 2.24443,-9.41196 2.32729,-9.32909 0.0829,0.0829 1.07314,4.19876 2.20061,9.14643 1.12746,4.94766 2.20627,9.67075 2.39735,10.49575 0.3337,1.44082 0.62975,1.5 7.50356,1.5 h 7.15615 l 4.76112,-18.62558 c 2.61862,-10.24407 4.59263,-18.79407 4.3867,-19 -0.20592,-0.20593 -2.71031,-0.37442 -5.5653,-0.37442 h -5.19088 l -0.59343,2.16667 c -0.32638,1.19167 -1.60349,6.28865 -2.83803,11.32664 -1.23453,5.03798 -2.44949,8.93798 -2.69989,8.66667 -0.25041,-0.27132 -0.95209,-2.74331 -1.55929,-5.49331 -0.6072,-2.75 -1.71431,-7.625 -2.46023,-10.83333 l -1.35623,-5.83334 h -6.19561 -6.1956 l -1.48593,6.5 c -3.17281,13.87911 -3.87995,16.46553 -4.23774,15.5 -0.31192,-0.84173 -2.13161,-7.6919 -5.18002,-19.5 l -0.6454,-2.5 h -5.30764 c -3.79275,0 -5.31241,0.23785 -5.32435,0.83334 -0.009,0.45833 2.01028,9.00833 4.48772,19 l 4.50444,18.16666 h 7.13402 c 6.223,0 7.17654,-0.14898 7.46701,-1.16666 z m 56.42352,-12.5 v -13.66667 h 3 3 v -5.33333 -5.33334 h -3 -3 v -6.66666 -6.66667 h -5.66666 -5.66667 v 6.62833 6.62834 l -2.83333,0.205 -2.83334,0.205 -0.19471,5.16666 -0.19471,5.16667 h 3.02805 3.02804 v 13.66667 13.66666 h 5.66667 5.66666 z m 26,2.05452 c 0,-6.38668 0.18636,-12.09777 0.41412,-12.69132 0.56909,-1.48302 3.7598,-3.02987 6.24975,-3.02987 1.30189,0 2.66732,0.60391 3.69977,1.63636 1.61647,1.61647 1.63636,1.78264 1.63636,13.66667 v 12.0303 h 5.66667 5.66667 v -13.56718 c 0,-8.37044 -0.29063,-14.43521 -0.75874,-15.83333 -2.79562,-8.34982 -11.24069,-11.74579 -19.29585,-7.75933 l -3.23718,1.60206 -0.18745,-7.38778 -0.18745,-7.38777 -5.5,-0.19363 -5.5,-0.19363 v 25.3603 25.36029 h 5.66667 5.66666 z m 44.66916,2.11214 c 0.002,-8.35239 0.16502,-9.76658 1.34793,-11.70678 1.40961,-2.31203 4.76385,-4.12655 7.62817,-4.12655 h 1.68808 v -6.66667 -6.66666 h -1.69323 c -2.22037,0 -6.62264,2.27376 -7.88121,4.07063 -0.97355,1.38993 -1.0007,1.37144 -1.21072,-0.82441 l -0.21484,-2.24622 h -5.33334 -5.33333 l -0.17705,18.83333 -0.17705,18.83333 h 5.67705 5.67705 z M 368.39126,490.9407 l 0.0353,-41.5 12.19473,33.55311 12.19473,33.55311 7.92618,7.94689 7.92619,7.94689 25.01042,-0.0117 25.01042,-0.0117 12,-33.33961 12,-33.3396 0.17474,25.51601 0.17475,25.516 7.81483,7.83525 7.81484,7.83525 h 32.51045 32.51042 l 0.0344,-50.5 0.0344,-50.5 2.59194,7.25591 c 4.44908,12.45478 10.47262,23.67326 17.939,33.41029 3.98246,5.1936 28.26859,29.48364 34.76444,34.77004 19.82388,16.13292 45.36391,24.98922 72.02496,24.97549 41.25646,-0.0213 78.66898,-21.74877 99.54935,-57.81382 6.11986,-10.57035 11.26901,-24.73612 13.13963,-36.14827 l 0.80051,-4.8837 -7.92893,-7.94964 -7.92893,-7.94964 h -32.71424 -32.71423 l -3.16347,6.24719 c -5.47889,10.81968 -12.70544,17.95371 -23.3791,23.07978 -7.54311,3.62262 -12.76178,4.83873 -21.0498,4.90526 -9.27504,0.0745 -19.5467,-2.5251 -25.47205,-6.4465 -2.61985,-1.73381 -6.63284,-9.35403 -8.31314,-15.78573 -1.76456,-6.7542 -1.58475,-18.97845 0.37229,-25.30984 4.32147,-13.98069 12.57254,-24.28506 24.74623,-30.90439 12.15166,-6.60735 26.51442,-7.8887 39.51331,-3.52512 8.64059,2.90055 11.12369,4.75159 13.97501,10.41776 1.98551,3.94563 4.07142,6.53204 10.32291,12.79986 l 7.8346,7.85507 h 32.91945 32.91945 l -0.47312,-3.16667 c -2.46915,-16.52632 -11.00181,-35.90507 -22.38245,-50.83335 -4.96857,-6.5174 -30.99695,-32.36406 -37.35357,-37.09279 -31.39658,-23.35608 -71.2055,-29.28376 -108.43696,-16.14662 -32.57665,11.4947 -58.71862,38.42637 -70.12117,72.23943 l -2.02334,6 -0.0137,-34.65667 -0.0137,-34.65665 -7.82291,-7.84335 -7.82291,-7.84335 -38.67709,0.0116 -38.67707,0.0116 -23.66667,65.31021 c -13.01666,35.92062 -23.81666,65.31172 -24,65.31355 -0.18333,0.002 -9.77686,-25.86795 -21.31896,-57.48844 l -20.98563,-57.49178 -8.01437,-7.80761 -8.01437,-7.8076 -38.5,-0.0257 -38.5,-0.0257 v 114.82372 114.82371 l 8.15666,8.17629 8.15667,8.1763 h 32.17667 32.17667 z m -75.36867,-89.5 V 291.10735 h 34.26812 34.26812 l 0.65818,1.83333 c 0.362,1.00834 9.25972,25.38334 19.77271,54.16667 10.513,28.78335 22.91348,62.74824 27.55664,75.47756 8.23586,22.57879 8.46271,23.09183 9.28558,21 0.46391,-1.17932 13.12018,-35.89421 28.12503,-77.14421 l 27.28155,-75.00002 34.39204,-0.17266 34.39203,-0.17267 V 401.4347 511.77403 h -27.66341 -27.66342 l -0.16992,-65.8014 -0.16991,-65.80139 -23.96273,65.81034 -23.96272,65.81034 -21.64501,-0.17561 -21.645,-0.17561 -24.20185,-66.33334 -24.20185,-66.33333 -0.0238,66.5 -0.0238,66.5 H 320.35584 293.0225 Z m 373,109.63382 c -46.79311,-3.97361 -86.19499,-37.20871 -97.60145,-82.32587 -9.64998,-38.16955 1.21814,-77.8078 28.8803,-105.33233 31.89592,-31.73723 78.57742,-41.0402 120.05449,-23.9252 12.85076,5.30272 23.6388,12.35581 33.57078,21.94818 12.752,12.31596 20.64417,23.93258 26.81758,39.47324 1.95498,4.92139 5.27305,16.25793 5.27662,18.02816 0.001,0.6541 -6.12808,0.82776 -28.49832,0.80743 l -28.5,-0.0259 -1.66666,-3.44527 c -3.33404,-6.89199 -10.53698,-15.13413 -17.63818,-20.1829 -14.82185,-10.53795 -35.14042,-12.72507 -52.74166,-5.67719 -16.40037,6.56703 -29.2356,22.00501 -32.9989,39.69049 -1.23209,5.79017 -1.09016,17.00839 0.29522,23.33334 1.48419,6.77609 6.65403,17.32075 11.26792,22.98259 22.2239,27.27162 65.28285,26.28226 86.40985,-1.98543 2.0565,-2.75157 4.4849,-6.57657 5.39647,-8.5 l 1.65738,-3.49716 h 28.50928 c 22.36388,0 28.50892,0.17963 28.5076,0.83333 -0.004,1.96672 -3.5677,13.89904 -5.81125,19.45761 -13.58241,33.65144 -43.83403,58.95931 -79.22803,66.28048 -5.8198,1.20381 -21.92815,2.92984 -24.88918,2.66691 -0.58842,-0.0522 -3.76986,-0.32428 -7.06986,-0.60451 z"
       id="path1" />
  </g>
</svg>
