<?xml version="1.0" encoding="UTF-8" standalone="no"?>
<!-- Created with Inkscape (http://www.inkscape.org/) -->

<svg
   version="1.1"
   id="svg1"
   width="777.10944"
   height="776.98846"
   viewBox="0 0 777.1094 776.98846"
   sodipodi:docname="MarkLogoYellowBlackNoBackground.svg"
   inkscape:export-filename="MarkLogoYellowBlackNoBackground.svg"
   inkscape:export-xdpi="96"
   inkscape:export-ydpi="96"
   inkscape:version="1.3.2 (091e20e, 2023-11-25)"
   xmlns:inkscape="http://www.inkscape.org/namespaces/inkscape"
   xmlns:sodipodi="http://sodipodi.sourceforge.net/DTD/sodipodi-0.dtd"
   xmlns="http://www.w3.org/2000/svg"
   xmlns:svg="http://www.w3.org/2000/svg">
  <defs
     id="defs1" />
  <sodipodi:namedview
     id="namedview1"
     pagecolor="#505050"
     bordercolor="#eeeeee"
     borderopacity="1"
     inkscape:showpageshadow="0"
     inkscape:pageopacity="0"
     inkscape:pagecheckerboard="true"
     inkscape:deskcolor="#505050"
     inkscape:zoom="0.42682101"
     inkscape:cx="275.29104"
     inkscape:cy="439.29421"
     inkscape:window-width="1416"
     inkscape:window-height="816"
     inkscape:window-x="0"
     inkscape:window-y="25"
     inkscape:window-maximized="0"
     inkscape:current-layer="g1" />
  <g
     inkscape:groupmode="layer"
     inkscape:label="Image"
     id="g1"
     transform="translate(-200.62801,-66.180992)">
    <g
       id="g2"
       transform="translate(0,3.8361584)">
      <path
         style="display:inline;fill:#fcde1c"
         d="m 200.86566,633.16665 c 0.24328,-211.04848 0.22926,-209.87933 2.76566,-230.72615 1.18468,-9.73696 5.49435,-34.52288 6.74183,-38.77384 0.538,-1.83334 1.98057,-7.38333 3.2057,-12.33333 4.43468,-17.91782 12.6913,-41.84267 19.50357,-56.51463 1.23801,-2.66637 2.25093,-4.99902 2.25093,-5.18365 0,-0.65874 6.35638,-13.46813 11.56297,-23.30172 6.72087,-12.69358 11.37512,-20.4659 19.76118,-33 5.9551,-8.90071 6.70341,-9.9538 12.00919,-16.90048 2.75,-3.60049 5.45,-7.20384 6,-8.00746 0.55,-0.80361 1.78402,-2.35308 2.74228,-3.44326 0.95826,-1.09017 4.9951,-5.73213 8.97077,-10.31547 15.19966,-17.52289 32.56561,-34.01118 52.76944,-50.10253 8.98592,-7.15684 11.84103,-9.21735 24.18418,-17.45355 11.00959,-7.34636 11.22893,-7.48176 25,-15.43219 6.22187,-3.59206 25.36731,-13.124206 34.66667,-17.259872 31.2389,-13.892742 72.69139,-25.258516 107.33334,-29.42951 29.26926,-3.524106 68.61843,-3.525699 98.00001,-0.004 34.2669,4.107295 78.98032,16.418853 106.84796,29.419913 2.66638,1.243941 5.02081,2.261711 5.23208,2.261711 1.49305,0 32.14478,16.143738 39.91997,21.025158 2.56667,1.6114 6.01667,3.75845 7.66667,4.7712 4.51186,2.76935 19.74655,13.34043 24.66667,17.11577 35.16139,26.98033 64.15665,57.55237 87.53647,92.29678 7.75158,11.5195 13.26189,20.53667 19.22355,31.45776 6.76769,12.39764 18.65109,37.4485 20.23982,42.66666 0.27909,0.91667 1.05971,2.86667 1.7347,4.33334 5.57632,12.11648 16.07816,48.123 19.24989,65.99999 0.78065,4.4 1.99405,11 2.69646,14.66667 5.28368,27.58166 5.89244,80.38679 1.31039,113.66667 -1.10084,7.99546 -5.95786,34.27472 -7.39295,39.99999 -5.30583,21.16772 -8.06976,30.77307 -12.46909,43.33334 -4.58366,13.08653 -12.0284,32.40287 -13.379,34.71353 -0.33655,0.57578 -1.5887,3.39323 -2.78256,6.26101 -2.58653,6.21312 -16.75333,34.46579 -20.0957,40.07658 -1.2938,2.17188 -3.64066,6.19887 -5.21524,8.94887 -16.62146,29.02928 -42.62917,58.12888 -72.99008,81.66738 -3.3,2.55846 -6.3,4.88825 -6.66666,5.17732 -2.84965,2.24657 -16.58092,11.68899 -22,15.12849 -3.66667,2.32723 -7.71667,4.89785 -9.00001,5.71248 -15.59684,9.90058 -42.07377,23.04285 -62,30.77475 -33.54459,13.01618 -64.06112,20.13942 -94.98863,22.17248 -7.09252,0.46623 -83.27873,0.70043 -227.85268,0.70043 H 200.62802 Z m 659.04317,-36.00602 c 5.91685,-14.39497 10.7579,-26.39497 10.7579,-26.66666 0,-0.27169 -2.66195,-0.49398 -5.91545,-0.49398 h -5.91544 l -4.23347,10.38659 c -2.32841,5.71262 -4.32156,10.13762 -4.42922,9.83333 -0.10766,-0.30429 -1.7684,-4.90326 -3.69053,-10.21992 l -3.49479,-9.66667 -6.16055,-0.19168 c -3.3883,-0.10543 -6.16055,0.0689 -6.16055,0.38736 0,0.31848 3.10141,8.20474 6.89203,17.52502 l 6.89204,16.94597 -3.5495,8.66666 c -1.95223,4.76667 -3.55364,8.89167 -3.5587,9.16667 -0.005,0.275 2.64974,0.5 5.89957,0.5 h 5.90877 z m -465.07547,10.57911 c 2.35212,-1.1527 3.16667,-1.31883 3.16667,-0.64582 0,0.69653 1.38757,0.90607 6,0.90607 h 6 v -19 -19 h -6 c -5.59684,0 -6,0.0915 -6,1.36143 0,1.30829 -0.11933,1.29151 -3.05678,-0.42995 -4.29431,-2.51663 -10.5315,-2.56413 -15.27656,-0.11634 -4.12901,2.13 -5.84148,3.93237 -7.78448,8.19316 -2.17969,4.77979 -2.17888,14.53658 0.002,19.32503 4.27706,9.3927 14.46053,13.56663 22.94957,9.40642 z m -8.99162,-11.45001 c -2.43183,-1.3195 -3.84171,-4.22344 -3.84171,-7.91279 0,-8.75137 11.76861,-10.42082 14.52394,-2.06031 2.27596,6.90595 -4.56466,13.29246 -10.68223,9.9731 z m 206.81278,11.65905 c 1.85681,-0.84224 3.07655,-1.08906 3.22222,-0.65203 0.14104,0.4231 2.60242,0.70324 6.17886,0.70324 h 5.94444 v -19 -19 h -6 c -5.48259,0 -6,0.11093 -6,1.2864 0,1.20852 -0.18594,1.18248 -3.07113,-0.43009 -7.00453,-3.9149 -16.84912,-1.46699 -21.38298,5.317 -5.40284,8.08422 -4.25865,21.60518 2.37658,28.08431 4.89714,4.78193 12.86563,6.35213 18.73201,3.69117 z m -8.81276,-11.65905 c -2.43183,-1.3195 -3.84172,-4.22344 -3.84172,-7.91279 0,-8.72424 11.4497,-10.38957 14.596,-2.12295 2.54006,6.6738 -4.6259,13.36096 -10.75428,10.03574 z m 224.6583,11.40108 c 2.75921,-1.2846 3.5,-1.42432 3.5,-0.66015 0,0.77197 1.15376,0.96933 5.66667,0.96933 h 5.66666 v -19 -19 h -5.66666 c -5.22223,0 -5.66667,0.10457 -5.66667,1.33333 0,1.66076 -0.36602,1.6666 -2.43536,0.0389 -2.47528,-1.94706 -8.03076,-2.90552 -11.8631,-2.04668 -4.14161,0.92816 -6.23932,2.06945 -8.79357,4.78427 -3.98294,4.23332 -4.57464,6.11617 -4.57464,14.55688 0,7.25236 0.10687,7.85961 1.97759,11.23704 4.66719,8.42624 13.87526,11.65776 22.18908,7.78712 z m -8.47999,-11.17748 c -2.44443,-1.28572 -4.68706,-5.00984 -4.68419,-7.7786 0.008,-7.23266 8.07441,-10.54003 13.0474,-5.34933 1.66503,1.73791 1.95011,2.56322 1.95011,5.64554 0,3.13534 -0.26735,3.87742 -2.03305,5.64312 -2.34399,2.34399 -5.84302,3.12122 -8.28027,1.83927 z m -314.02003,11.46535 c 0,-0.37838 -3.15001,-4.61089 -7.00001,-9.40558 -3.85,-4.79469 -7,-8.99992 -7,-9.34496 0,-0.34504 3.04924,-4.43752 6.77609,-9.09441 3.72685,-4.65689 7.06358,-8.84208 7.41497,-9.30041 0.50067,-0.65307 -0.73578,-0.83333 -5.71581,-0.83333 h -6.35469 l -6.22695,7.80089 -6.22694,7.80089 -0.17942,-14.80089 -0.17942,-14.80089 h -5.65391 -5.65392 v 26 26 h 5.64551 5.64551 l 0.18783,-7.62564 0.18782,-7.62564 6.25698,7.95897 6.25698,7.95897 h 5.90969 c 3.61734,0 5.90969,-0.26686 5.90969,-0.68797 z m 210.51354,-13.47869 0.18019,-13.83334 h 2.98647 2.98648 v -5.33333 -5.33333 h -2.97668 -2.97668 l -0.18999,-6.83334 -0.18999,-6.83333 -5.83333,-0.19262 -5.83333,-0.19262 v 7.02595 7.02596 h -3 -3 v 5.33333 5.33333 h 3 3 v 14.02596 14.02595 l 5.83333,-0.19262 5.83333,-0.19262 z m -376.36129,0.66666 0.18107,-12.83333 4.6442,12.85878 4.6442,12.85878 4.95013,-0.19211 4.95012,-0.19212 4.87404,-13.33333 4.87403,-13.33333 0.0316,13.5 0.0316,13.5 h 6 6 v -23.6885 -23.6885 l -7.5,0.1885 -7.5,0.1885 -5.687,15.46477 c -3.12785,8.50563 -5.86104,15.63882 -6.07376,15.85154 -0.21272,0.21271 -1.21326,-1.94643 -2.22342,-4.79811 -1.01017,-2.85168 -3.63247,-10.05987 -5.82733,-16.0182 l -3.99067,-10.83334 h -7.26558 -7.26558 v 23.66667 23.66667 h 5.98561 5.9856 z m 111.29971,2.78042 0.2147,-10.05292 2.4096,-2.20654 c 1.52066,-1.39251 3.42674,-2.37839 5.16667,-2.67235 l 2.75706,-0.4658 v -6.92474 -6.92473 l -2.16666,0.41056 c -2.85792,0.54156 -4.4475,1.35915 -6.66667,3.42896 l -1.83334,1.70993 v -2.12473 -2.12472 h -5.66666 -5.66667 v 19 19 h 5.61864 5.61863 z m 115.40081,8.6607 c 5.06745,-1.9392 9.94225,-6.40544 12.43402,-11.39191 3.19983,-6.40342 3.11431,-6.54921 -3.84188,-6.54921 h -5.88842 l -2.20003,2.73765 c -5.04119,6.27308 -13.1579,6.1463 -18.29795,-0.2858 -1.74866,-2.18822 -2.03629,-3.09956 -2.03629,-6.45185 0,-3.35229 0.28763,-4.26362 2.03629,-6.45184 5.14005,-6.43211 13.25676,-6.55888 18.29795,-0.2858 l 2.20003,2.73764 h 5.88842 c 6.94834,0 7.03877,-0.15166 3.87062,-6.49169 -7.39963,-14.80796 -26.88795,-17.65635 -38.1832,-5.58081 -4.73578,5.06293 -6.06652,8.49507 -6.10252,15.73917 -0.0254,5.10846 0.22785,6.54935 1.70426,9.69709 3.01513,6.42832 8.14381,11.11696 14.26593,13.04191 4.30191,1.35264 11.66826,1.13677 15.85277,-0.46455 z m 94.9474,-8.27445 c 1.18781,-5.13333 2.25201,-9.78333 2.36489,-10.33333 0.11287,-0.55 1.25803,3.65 2.54479,9.33333 l 2.33957,10.33333 7.4438,0.18821 7.4438,0.18821 0.66505,-2.52154 c 1.47795,-5.60367 8.73127,-34.84004 8.73127,-35.19365 0,-0.20889 -2.60895,-0.29312 -5.79767,-0.18718 l -5.79768,0.19262 -2.61463,10.5 c -1.43804,5.775 -2.80409,10.4998 -3.03566,10.49956 -0.23156,-2.3e-4 -1.49206,-4.72523 -2.8011,-10.5 l -2.38008,-10.49956 -6.41538,-0.19035 -6.41538,-0.19035 -0.60686,2.19786 c -0.33377,1.20882 -1.44674,6.01948 -2.47326,10.69035 -1.02653,4.67087 -2.04548,8.49223 -2.26435,8.49191 -0.21887,-3.3e-4 -1.5981,-4.72533 -3.06495,-10.5 l -2.66701,-10.49942 -5.83299,-0.19262 c -3.20815,-0.10594 -5.833,0.0156 -5.833,0.27009 0,0.25449 2.14621,8.82557 4.76936,19.04683 l 4.76936,18.58411 7.38423,-0.18754 7.38423,-0.18754 z m 80.19984,-1.91009 c 0,-10.53654 0.11886,-11.72787 1.32279,-13.25842 2.55767,-3.25154 7.96372,-3.14502 9.6888,0.19092 0.76005,1.46978 0.98841,4.53745 0.98841,13.27782 v 11.36644 h 5.66667 5.66667 v -14.20244 c 0,-13.98831 -0.0263,-14.25531 -1.74759,-17.70939 -3.84154,-7.70897 -11.39071,-9.225 -21.08575,-4.23444 -0.275,0.14156 -0.5,-3.0793 -0.5,-7.15747 v -7.41484 l -5.83333,0.19262 -5.83334,0.19262 -0.17468,25.16667 -0.17468,25.16667 h 6.00802 6.00801 z m 44.78531,1.52384 0.2147,-10.05292 2.4096,-2.20654 c 1.52065,-1.39251 3.42673,-2.37839 5.16667,-2.67235 l 2.75706,-0.4658 v -6.92474 -6.92473 l -2.16667,0.41056 c -2.85791,0.54156 -4.44749,1.35915 -6.66666,3.42896 l -1.83334,1.70993 v -2.12473 -2.12472 h -5.66666 -5.66667 v 19 19 h 5.61864 5.61863 z m -354.62387,-113.31699 0.17187,-40.03657 11.33241,31.53657 11.33242,31.53657 8.30132,8.5 8.30132,8.5 h 25.08576 25.08577 l 11.61384,-32.08991 11.61384,-32.08991 0.17526,23.92224 0.17527,23.92224 8.14806,8.16767 8.14807,8.16767 h 32.51 32.51001 l 0.0358,-50.16666 c 0.0353,-49.31984 0.0562,-50.10477 1.24094,-46.5 3.67209,11.17296 7.98131,19.93286 15.18253,30.86348 3.64755,5.53656 7.46639,9.79195 20.51135,22.85614 8.81614,8.82913 17.86106,17.43837 20.09984,19.13164 22.43481,16.9683 50.90414,25.48659 77.74188,23.2611 5.23653,-0.43424 12.37095,-1.39046 15.85429,-2.12494 36.72007,-7.74264 67.96284,-33.34543 82.38462,-67.51245 3.3513,-7.93963 5.02084,-13.44393 7.01189,-23.11738 l 1.29857,-6.30908 -7.83712,-7.85759 -7.83711,-7.85759 H 799.16857 765.9829 l -2.21051,4.5 c -6.09882,12.41558 -12.55441,18.97388 -24.10567,24.4892 -7.7769,3.71319 -13.68567,5.10119 -21.64343,5.08414 -7.51656,-0.0161 -14.7536,-1.68594 -21.82381,-5.03552 -4.62305,-2.19021 -4.88601,-2.44397 -7.11117,-6.86255 -12.43765,-24.69788 -2.4386,-54.35807 22.5928,-67.01704 6.72835,-3.40269 11.56247,-4.60485 20.00624,-4.97519 9.43469,-0.41382 15.82128,0.87162 24.08963,4.84853 l 4.98382,2.39712 2.63398,5.45233 c 2.24601,4.64923 3.78413,6.60611 10.44254,13.28565 l 7.80856,7.83333 h 33.18979 33.18979 l -0.34079,-1.5 c -0.18744,-0.825 -0.8164,-3.87873 -1.39768,-6.78607 -2.74662,-13.73756 -10.41231,-31.2945 -18.78403,-43.02158 -6.14635,-8.60981 -33.55965,-36.02065 -42.20069,-42.19691 -7.60487,-5.43566 -22.66578,-13.07501 -31.19264,-15.82186 -36.5555,-11.77602 -78.03388,-4.48848 -107.25174,18.84359 -5.96305,4.76183 -17.32673,16.4022 -21.20228,21.71853 -7.09795,9.73671 -12.63291,20.21509 -16.42658,31.09764 l -2.55641,7.33333 -0.003,-34.34333 -0.003,-34.34334 -8.18183,-8.16219 -8.18184,-8.16219 -38.30654,0.17219 -38.30655,0.1722 -23.67829,65.15171 c -13.02306,35.83344 -23.82829,65.15539 -24.01163,65.1599 -0.18333,0.005 -9.75301,-25.76285 -21.26596,-57.26077 l -20.93262,-57.26896 -8.077,-8.05761 -8.07701,-8.05761 H 369.15698 330.6666 v 115.15704 115.15704 l 8.15666,8.17629 8.15667,8.17629 h 32.5048 32.5048 z M 336.00002,393.33332 V 283.33333 h 34.17902 34.17902 l 28.295,77.63709 c 15.56225,42.70041 28.34642,77.57541 28.40927,77.5 0.0628,-0.0754 12.79046,-35.0121 28.28358,-77.6371 l 28.16932,-77.49999 h 33.90907 33.90908 v 109.99999 110 h -27.33009 -27.33008 l -0.16992,-65.74789 -0.16992,-65.7479 -23.96527,65.75684 -23.96528,65.75683 -21.62885,-0.1756 -21.62885,-0.17561 -24.21557,-66.33333 -24.21557,-66.33334 -0.0236,66.5 -0.0236,66.5 h -27.33333 -27.33334 z m 364.33336,108.65783 c -29.25822,-5.26399 -52.86013,-19.58491 -70.30317,-42.65783 -10.88374,-14.39655 -17.748,-30.79529 -20.78968,-49.66666 -1.10669,-6.86618 -1.09701,-25.88218 0.0165,-32.33334 3.48698,-20.20256 10.28397,-36.02383 22.05338,-51.33333 16.73731,-21.77169 42.91641,-37.10254 70.68967,-41.39687 7.04239,-1.0889 24.5498,-1.0877 31.66667,0.002 42.29161,6.47652 76.00085,34.9054 88.93145,75.00087 1.42971,4.43327 2.80385,9.0355 3.05365,10.22716 l 0.45418,2.16667 h -28.34995 -28.34996 l -2.38715,-4.54276 c -5.45363,-10.37828 -16.59331,-20.58558 -27.38847,-25.09608 -10.12669,-4.23121 -24.76664,-5.23887 -35.29709,-2.42949 -11.19035,2.98544 -20.5759,8.6983 -27.47394,16.72303 -7.56879,8.80504 -11.78966,17.5758 -13.48055,28.01197 -4.44262,27.41967 12.6395,54.36348 39.3136,62.0098 6.43578,1.84486 18.36489,2.48744 24.8694,1.33964 17.01595,-3.00268 32.2636,-14.37068 40.0364,-29.84944 l 1.75756,-3.5 h 28.32211 c 15.57715,0 28.3221,0.25713 28.3221,0.57141 0,1.56489 -4.43242,15.76849 -6.42978,20.60408 -11.7063,28.34091 -36.06774,51.32943 -65.10482,61.43577 -16.67237,5.8028 -37.83462,7.64538 -54.13208,4.71323 z"
         id="path6" />
      <path
         style="display:inline;fill:#151008"
         d="m 838.38533,621.16665 c 0.26131,-0.825 1.78153,-4.61931 3.37826,-8.43181 1.59672,-3.8125 2.90314,-7.26285 2.90314,-7.66745 0,-0.4046 -3,-8.08493 -6.66667,-17.0674 -3.66667,-8.98248 -6.66667,-16.55712 -6.66667,-16.83255 0,-0.27543 2.52845,-0.50079 5.61877,-0.50079 h 5.61877 l 1.29398,3.5 c 0.71169,1.925 2.41657,6.575 3.78862,10.33334 1.37204,3.75833 2.57831,6.83333 2.68058,6.83333 0.10228,0 2.09396,-4.64812 4.42596,-10.32915 l 4.23999,-10.32915 5.57133,-0.004 c 5.02265,-0.004 5.52993,0.11071 5.151,1.16248 -0.23118,0.64167 -4.98828,12.34008 -10.57133,25.99647 l -10.151,24.8298 -5.54492,0.004 c -5.44728,0.003 -5.53656,-0.0229 -5.06981,-1.49647 z M 381.4677,607.54769 c -6.2733,-2.21912 -10.18884,-8.56254 -10.66334,-17.27528 -0.50574,-9.28656 2.49092,-15.81688 8.76015,-19.09009 2.11171,-1.10254 3.97022,-1.45186 7.83079,-1.47188 4.42478,-0.0229 5.40899,0.20342 7.81904,1.79832 3.29464,2.18028 3.45236,2.20272 3.45236,0.49123 0,-1.22223 0.44444,-1.33334 5.33333,-1.33334 h 5.33333 v 18.66667 18.66667 h -5.33333 c -4.90374,0 -5.33333,-0.10831 -5.33333,-1.34457 0,-1.30356 -0.10097,-1.2934 -3.31118,0.33334 -3.87549,1.96386 -9.29912,2.18214 -13.88782,0.55893 z m 12.25653,-11.31337 c 5.56986,-3.64952 4.39682,-13.30278 -1.8675,-15.36815 -8.42817,-2.7788 -14.2303,7.99099 -7.78008,14.44121 1.65091,1.65091 2.57613,2.02594 4.99812,2.02594 1.63817,0 3.72498,-0.49326 4.64946,-1.099 z m 186.41919,11.59449 c -3.18322,-1.02 -7.74727,-5.31781 -9.53829,-8.9819 -1.32048,-2.70143 -1.55834,-4.23419 -1.57981,-10.18026 -0.0236,-6.54261 0.1054,-7.23958 1.97472,-10.66666 4.43913,-8.13841 15.0306,-11.09352 22.48571,-6.27371 3.01186,1.94721 3.18096,1.96176 3.18096,0.27371 0,-1.22223 0.44444,-1.33334 5.33333,-1.33334 h 5.33334 v 18.66667 18.66667 h -5.33334 c -4.90373,0 -5.33333,-0.10831 -5.33333,-1.34457 0,-1.30356 -0.10096,-1.2934 -3.31117,0.33334 -3.60414,1.82635 -9.05288,2.17279 -13.21212,0.84005 z m 11.71209,-11.53596 c 5.44553,-3.81419 4.17637,-13.39087 -2.04651,-15.44232 -8.59277,-2.83273 -14.19866,8.40697 -7.3571,14.75082 2.2031,2.04283 6.97349,2.39363 9.40361,0.6915 z m 202.102,10.54047 c -6.54927,-3.32147 -9.54259,-8.99901 -9.57786,-18.16667 -0.0458,-11.9097 6.10654,-18.93559 16.62041,-18.9802 3.92874,-0.0167 5.1674,0.27455 7.83333,1.84164 3.02523,1.7783 3.16667,1.80063 3.16667,0.5 0,-1.25735 0.40775,-1.36144 5.33333,-1.36144 h 5.33334 v 18.66667 18.66667 h -5.33334 c -4.75917,0 -5.33333,-0.13378 -5.33333,-1.24266 0,-1.16485 -0.19493,-1.14398 -3.11299,0.33333 -4.49768,2.27701 -10.12353,2.18004 -14.92956,-0.25734 z m 13.9469,-11.18848 c 6.95586,-5.85297 1.60489,-16.868 -7.23769,-14.89885 -6.15273,1.37015 -7.75682,10.53527 -2.60292,14.872 2.80854,2.36323 7.05022,2.3748 9.84061,0.0269 z M 308.00002,584.66665 v -23.33333 h 7.19477 7.19476 l 5.91164,16.33805 c 3.25139,8.98592 6.08875,16.16134 6.30523,15.94537 0.21648,-0.21597 2.9786,-7.49309 6.13804,-16.17138 l 5.74445,-15.77871 7.08889,-0.18922 7.08889,-0.18922 v 23.35589 23.35589 h -5.65314 -5.65314 l -0.18019,-13.83334 -0.18019,-13.83333 -5.00001,13.82548 -5,13.82549 -4.43478,0.008 c -4.23595,0.007 -4.46447,-0.0743 -5.09693,-1.82549 -5.97735,-16.54989 -8.95937,-24.55822 -9.46971,-25.4313 -0.40283,-0.68914 -0.6319,3.9627 -0.64497,13.09797 l -0.0203,14.16667 h -5.66667 -5.66667 z m 112.00001,4.66667 v -18.66667 h 5.66667 5.66666 v 2.42324 2.42324 l 1.44761,-1.84032 c 1.37267,-1.74508 5.9207,-4.29325 7.71906,-4.32485 0.61209,-0.0107 0.83334,1.75533 0.83334,6.65203 v 6.66666 h -2.41177 c -1.91266,0 -2.94739,0.53563 -5,2.58824 l -2.58824,2.58823 v 10.07843 10.07844 h -5.66666 -5.66667 z m 30,-7 v -25.66667 h 5.33334 5.33333 v 14.66667 c 0,8.36138 0.26069,14.66667 0.60639,14.66667 0.33351,0 3.36064,-3.45 6.72694,-7.66667 l 6.12056,-7.66667 h 5.60639 c 3.08351,0 5.60639,0.17182 5.60639,0.38181 0,0.20999 -3.18862,4.31371 -7.08582,9.11937 -6.47431,7.98353 -7.01148,8.85672 -6.22446,10.1182 0.47374,0.75934 3.82431,5.05562 7.4457,9.54729 l 6.58435,8.16667 h -5.92636 -5.92636 l -6.17746,-7.83334 c -3.3976,-4.30833 -6.44269,-7.93333 -6.76686,-8.05555 -0.32417,-0.12222 -0.5894,3.40278 -0.5894,7.83333 v 8.05556 h -5.33333 -5.33334 z m 83.86738,25.00917 c -7.21909,-1.2803 -14.56736,-7.48236 -17.22882,-14.54142 -2.00885,-5.32809 -1.62925,-13.66823 0.84054,-18.46775 7.40412,-14.38834 26.64591,-17.23794 37.62939,-5.57269 2.28122,2.42282 4.54964,6.48039 5.25852,9.40602 l 0.44421,1.83334 h -5.4918 -5.4918 l -2.74714,-2.93227 c -5.79209,-6.18241 -14.15028,-5.49833 -18.89794,1.54672 -2.11868,3.14391 -2.11868,8.96051 0,12.10443 4.79895,7.12116 14.29936,7.61907 19.56065,1.02517 l 1.92349,-2.41068 5.5,-2e-5 c 6.40158,-2e-5 6.46922,0.1045 3.71194,5.7356 -4.38301,8.95127 -14.83203,14.07883 -25.01124,12.27355 z m 90.82828,-1.8425 c -1.11999,-3.99793 -8.69565,-33.99876 -8.69565,-34.4362 0,-0.21842 2.3859,-0.39714 5.302,-0.39714 h 5.302 l 0.59342,2.16667 c 0.32639,1.19167 1.60424,6.29167 2.83968,11.33333 1.23544,5.04167 2.43056,9.16667 2.65583,9.16667 0.22526,0 1.56345,-5.1 2.97374,-11.33333 l 2.56417,-11.33334 h 6.14558 6.14558 l 1.00747,4.5 c 0.55411,2.475 1.697,7.575 2.53975,11.33334 0.84276,3.75833 1.70158,6.83333 1.9085,6.83333 0.20691,0 1.69061,-5.1 3.29712,-11.33333 l 2.92093,-11.33334 h 5.23545 c 2.8795,0 5.22689,0.225 5.21642,0.5 -0.0105,0.275 -2.05363,8.6 -4.54035,18.5 l -4.52133,18 -7.03864,0.18833 -7.03865,0.18834 -0.42035,-2.18834 c -1.7749,-9.23994 -4.66797,-19.99956 -5.067,-18.84469 -0.25142,0.72767 -1.46739,5.74803 -2.70215,11.15636 l -2.24502,9.83334 h -6.83907 -6.83907 z m 60.63769,-11.16667 v -13.66667 h -3 -3 v -5 -5 h 3 3 v -7 -7 h 5.33334 5.33333 v 7 7 h 3 3 v 5 5 h -3 -3 v 13.66667 13.66667 h -5.33333 -5.33334 z m 25.33334,-11.33333 v -25 h 5.33333 5.33334 v 7.33333 c 0,4.03333 0.16195,7.33333 0.35989,7.33333 0.19794,0 1.61411,-0.63985 3.14706,-1.4219 1.55148,-0.79151 4.56925,-1.55477 6.80677,-1.72159 3.59441,-0.26799 4.34442,-0.0903 7.0902,1.67962 2.10863,1.35923 3.57062,2.99507 4.66667,5.2216 1.50482,3.0569 1.60888,4.05224 1.82003,17.40894 l 0.22396,14.16667 h -5.72396 -5.72396 l -0.0212,-12.16667 c -0.016,-9.18334 -0.24286,-12.45889 -0.92516,-13.35841 -2.02887,-2.67476 -7.58202,-2.53753 -10.10786,0.24978 -1.14216,1.2604 -1.30146,2.68901 -1.48786,13.34341 l -0.20875,11.93189 h -5.29125 -5.29125 z m 44.66667,6.33333 v -18.66667 h 5.66667 5.66666 v 2.42324 2.42324 l 1.4476,-1.84032 c 1.37268,-1.74508 5.92071,-4.29325 7.71907,-4.32485 0.61209,-0.0107 0.83333,1.75533 0.83333,6.65203 v 6.66666 h -2.41176 c -1.91266,0 -2.9474,0.53563 -5,2.58824 l -2.58824,2.58823 v 10.07843 10.07844 h -5.66666 -5.66667 z M 339.15627,516.15664 331.33336,508.3133 V 393.48998 278.66666 h 38.20082 38.20083 l 7.97133,8.16667 7.97133,8.16666 20.99452,57.49778 c 11.54698,31.62377 21.14451,57.49773 21.32784,57.49768 0.18334,-5e-5 11.0177,-29.47405 24.07637,-65.49778 l 23.74303,-65.49768 38.24142,-0.17219 38.24142,-0.17219 7.84889,7.82844 7.84888,7.82843 0.0526,36.34376 c 0.0353,24.34169 0.26492,35.68328 0.69547,34.34375 0.35356,-1.1 1.40686,-4.4 2.34067,-7.33333 5.1067,-16.04145 15.00066,-32.22002 27.32593,-44.68322 17.63744,-17.83484 38.6561,-28.53777 64.91863,-33.05727 7.64218,-1.31513 27.5593,-1.1206 35.66667,0.34836 19.19198,3.47737 34.95706,10.33727 51.00001,22.19175 7.40731,5.47343 33.41046,31.96788 38.83051,39.56417 4.89673,6.86287 10.51094,17.26095 13.82339,25.60232 1.96307,4.94338 5.28103,16.81878 6.29591,22.53389 l 0.44394,2.5 h -32.87396 -32.87397 l -7.73277,-7.83334 c -6.42927,-6.51287 -8.1622,-8.71948 -10.28026,-13.09022 l -2.54749,-5.2569 -5.37599,-2.56241 c -8.21305,-3.91466 -12.7282,-4.90333 -22.37598,-4.89959 -6.84451,0.003 -9.22363,0.28032 -13.31652,1.55421 -14.36603,4.47135 -24.91137,13.33593 -31.283,26.29697 -7.11635,14.47595 -7.31578,30.27226 -0.55236,43.75081 2.78686,5.55381 2.88522,5.65781 7.64502,8.08331 24.95735,12.71777 56.50206,1.47152 68.19285,-24.31195 l 1.99395,-4.39756 h 32.83712 32.83712 l 7.88895,7.90956 7.88896,7.90956 -0.78026,3.92377 c -5.4111,27.21161 -19.06735,50.67936 -39.2578,67.46306 -24.55723,20.41368 -56.76091,29.84632 -88.11937,25.81065 -16.89462,-2.17425 -31.82609,-7.50259 -46.308,-16.52518 -9.23604,-5.75427 -15.46177,-11.14475 -30.71583,-26.59495 -11.71648,-11.86712 -14.90677,-15.53276 -19.21429,-22.07713 -6.26568,-9.5194 -10.84618,-18.93444 -14.36849,-29.53388 l -2.64258,-7.95213 -0.0294,51.83334 -0.0294,51.83333 h -32.17709 -32.17709 l -7.81483,-7.83525 -7.81484,-7.83525 -0.17474,-25.50812 -0.17475,-25.50812 -12,33.33473 -12,33.33473 -25.01042,0.009 -25.01042,0.009 -7.90483,-7.92548 -7.90483,-7.92548 -6.45753,-17.90785 c -3.55164,-9.84932 -8.98977,-24.87059 -12.08475,-33.38059 l -5.62722,-15.47273 -0.17172,41.30606 -0.17171,41.30607 h -32.17204 -32.17205 z m 52.34048,-77.11547 0.16995,-64.95882 23.62682,64.96765 23.62683,64.96765 21.95944,-0.1755 21.95944,-0.17549 23.74707,-65.26534 23.74707,-65.26534 0.16994,65.432 0.16993,65.43201 h 27.6634 27.6634 V 393.32732 282.65466 l -34.38869,0.17267 -34.38868,0.17266 -27.93737,76.66667 c -15.36555,42.16666 -28.01565,76.88639 -28.11132,77.15494 -0.0957,0.26855 -11.69982,-31.08145 -25.787,-69.66667 -14.08718,-38.58521 -26.7971,-73.37994 -28.24426,-77.3216 l -2.6312,-7.16667 h -34.58908 -34.58908 v 110.66666 110.66667 h 27.99672 27.99672 z m 339.98174,63.99605 c 25.4728,-3.15993 47.98893,-14.25264 65.21533,-32.12873 12.20171,-12.66188 20.07944,-25.08091 25.23894,-39.78849 1.76821,-5.04042 4.73397,-15.52219 4.73397,-16.73108 0,-0.21391 -13.02979,-0.38893 -28.95508,-0.38893 h -28.95508 l -0.46326,1.5 c -2.17943,7.05684 -13.0332,19.38729 -21.84896,24.82157 -20.47792,12.62315 -48.00451,9.89324 -65.52742,-6.49858 -11.01643,-10.30533 -16.78556,-22.83934 -17.42702,-37.86196 -0.63254,-14.81348 2.91867,-25.50407 12.46064,-37.51164 6.65514,-8.37479 16.30249,-14.60689 27.71617,-17.90439 4.494,-1.29836 6.80215,-1.53332 14.66667,-1.49303 8.19047,0.042 10.06803,0.27175 15.33333,1.8766 14.39147,4.38649 27.202,15.02826 33.42888,27.76953 l 1.90446,3.89684 28.83333,0.0359 c 15.85834,0.0197 28.83334,-0.14584 28.83334,-0.36791 0,-0.22208 -0.46427,-2.24708 -1.03171,-4.5 -4.42024,-17.54984 -11.73248,-31.89378 -23.26195,-45.63145 -20.8878,-24.88835 -51.4671,-38.93927 -84.63682,-38.88987 -10.9918,0.0164 -16.72672,0.6948 -26.40287,3.12342 -14.87173,3.73266 -27.63554,9.84155 -40.31615,19.29571 -5.65131,4.21339 -16.28467,14.93106 -21.17143,21.33929 -20.40991,26.76442 -27.15961,62.3418 -18.21301,96 4.74564,17.8537 14.00367,33.70868 28.03392,48.00995 12.81966,13.06728 26.06259,21.39882 42.91916,27.00178 16.74005,5.56422 31.94847,7.12744 48.89262,5.0255 z"
         id="path2" />
    </g>
  </g>
</svg>
